# xmcd
#
# Track frame offsets: 
#        150
#        13112
#        30820
#        42310
#        60142
#        79202
#        98675
#        112120
#        123795
#        138730
#
# Disc length: 2127 seconds
#
# Revision: 2
# Processed by: cddbd v1.5.1PL0 Copyright (c) Steve Scherf et al.
# Submitted via: ExactAudioCopy v0.95a5
#
DISCID=75084d0a
DTITLE=Dolly Parton - White Limozeen
DYEAR=1989
DGENRE=Country
TTITLE0=Time for Me to Fly
TTITLE1=Yellow Roses
TTITLE2=Why'd You Come In Here Lookin Like That
TTITLE3=Slow Healing Heart
TTITLE4=What Is It My Love
TTITLE5=White Limozeen
TTITLE6=Wait 'Til I Get You Home
TTITLE7=Take Me Back To The Country
TTITLE8=The Moon, The Stars and Me
TTITLE9=He's Alive
EXTD=
EXTT0=
EXTT1=
EXTT2=
EXTT3=
EXTT4=
EXTT5=
EXTT6=
EXTT7=
EXTT8=
EXTT9=
PLAYORDER=
